<?xml version="1.0" encoding="iso-8859-1"?>
<!-- Generator: Adobe Illustrator 19.0.0, SVG Export Plug-In . SVG Version: 6.00 Build 0)  -->
<svg version="1.1" id="Capa_1" xmlns="http://www.w3.org/2000/svg" xmlns:xlink="http://www.w3.org/1999/xlink" x="0px" y="0px"
	 viewBox="0 0 512 512" style="enable-background:new 0 0 512 512;" xml:space="preserve">
<g>
	<path style="fill:#F9C295;" d="M161.987,154.719h19.173V116.55h-19.173c-10.54,0-19.085,8.544-19.085,19.085l0,0
		C142.903,146.174,151.447,154.719,161.987,154.719z"/>
	<path style="fill:#F9C295;" d="M350.013,154.719H330.84V116.55h19.173c10.54,0,19.085,8.544,19.085,19.085l0,0
		C369.097,146.174,360.553,154.719,350.013,154.719z"/>
</g>
<path style="fill:#656D88;" d="M286.323,240.998h-60.647c-10.891,0-21.242-0.692-30.593,3.461
	c-26.418,11.735-44.841,38.203-44.841,68.973v92.898h211.515v-92.898c0-30.809-18.469-57.304-44.94-69.017
	C307.493,240.29,297.176,240.998,286.323,240.998z"/>
<path style="fill:#444966;" d="M286.323,240.998h-12.711c14.744,0,28.399,2.147,39.568,10.901
	c17.441,13.67,28.82,36.136,28.82,61.534v92.898h19.758v-92.898c0-30.809-18.469-57.304-44.94-69.017
	C307.493,240.29,297.176,240.998,286.323,240.998z"/>
<path style="fill:#F9C295;" d="M256,20.471L256,20.471c-44.991,0-81.464,36.473-81.464,81.464v39.275
	c0,44.991,36.473,81.464,81.464,81.464l0,0c44.991,0,81.464-36.473,81.464-81.464v-39.275C337.464,56.944,300.991,20.471,256,20.471
	z"/>
<path style="fill:#E59F6A;" d="M256,20.471c-2.314,0-4.598,0.12-6.863,0.309c35.284,3.488,63.008,38.477,63.008,81.155v39.275
	c0,42.678-27.724,77.667-63.008,81.155c2.265,0.189,4.549,0.309,6.863,0.309c44.991,0,81.464-36.473,81.464-81.464v-39.275
	C337.464,56.944,300.991,20.471,256,20.471z"/>
<path style="fill:#444966;" d="M266.686,0h-21.373c-39.089,0-70.777,31.688-70.777,70.777v30.791h5.164
	c13.242,0,24.915-8.688,28.716-21.372l3.677-12.27l6.69,6.69c17.257,17.257,40.663,26.952,65.068,26.952h53.611v-30.79
	C337.464,31.688,305.776,0,266.686,0z"/>
<path style="fill:#2E344C;" d="M266.686,0h-13.711c33.273,0,60.247,31.688,60.247,70.777v30.791h24.241V70.777
	C337.464,31.688,305.776,0,266.686,0z"/>
<path style="fill:#EBEEF2;" d="M256,365.605l60.908-121.127c-9.351-4.154-19.693-6.48-30.584-6.48h-60.647
	c-10.891,0-21.234,2.327-30.584,6.48L256,365.605z"/>
<path style="fill:#D1D6DE;" d="M316.907,244.478c-2.32-1.03-4.701-1.947-7.136-2.745c-0.027-0.009-0.053-0.018-0.079-0.027
	c-1.161-0.379-2.336-0.727-3.521-1.051c-0.08-0.022-0.16-0.047-0.24-0.068c-1.12-0.302-2.253-0.572-3.394-0.823
	c-0.147-0.032-0.292-0.07-0.439-0.101c-1.065-0.228-2.143-0.423-3.224-0.606c-0.223-0.037-0.444-0.084-0.668-0.119
	c-1.012-0.161-2.035-0.289-3.06-0.409c-0.292-0.034-0.58-0.08-0.873-0.111c-1.001-0.105-2.011-0.176-3.023-0.242
	c-0.314-0.02-0.625-0.055-0.94-0.071c-1.305-0.069-2.619-0.104-3.941-0.105c-0.016,0-0.031-0.001-0.046-0.001h-12.711
	c14.744,0,28.387,5.164,39.556,13.918L316.907,244.478L316.907,244.478z"/>
<path style="fill:#ED5575;" d="M246.219,262.647l-9.121,65.369L256,365.605l18.901-37.589l-9.121-65.369
	c9.804-3.894,16.739-13.459,16.739-24.649h-53.04C229.48,249.189,236.415,258.754,246.219,262.647z"/>
<path style="fill:#E59F6A;" d="M272.743,169.412H256c-4.146,0-7.506-3.361-7.506-7.506v-31.348c0-4.146,3.36-7.506,7.506-7.506
	s7.506,3.361,7.506,7.506V154.4h9.236c4.146,0,7.506,3.361,7.506,7.506S276.889,169.412,272.743,169.412z"/>
<path style="fill:#5C9CEE;" d="M186.892,202.266c-7.289-12.624-23.491-16.962-36.111-9.676l-21.037,12.146
	c-12.623,7.289-16.964,23.488-9.675,36.111c4.891,8.471,13.794,13.212,22.938,13.212c4.481,0,9.02-1.139,13.172-3.536l21.037-12.146
	C189.839,231.089,194.179,214.89,186.892,202.266z"/>
<path style="fill:#1B3D66;" d="M94.246,327.909c-4.146,0-7.506-3.361-7.506-7.506v-55.999c0-8.008,4.308-15.47,11.244-19.475
	l24.828-14.334c3.588-2.073,8.181-0.843,10.254,2.747s0.843,8.181-2.747,10.254L105.49,257.93c-2.306,1.331-3.738,3.811-3.738,6.473
	v55.999C101.752,324.548,98.392,327.909,94.246,327.909z"/>
<path style="fill:#E8AE6A;" d="M54.141,330.157v27.368c0,3.83,3.105,6.935,6.935,6.935h389.847c3.83,0,6.935-3.105,6.935-6.935
	v-27.368c0-3.83-3.105-6.935-6.935-6.935H61.076C57.246,323.222,54.141,326.327,54.141,330.157z"/>
<g>
	<path style="fill:#D39053;" d="M450.924,323.222h-22.703c3.83,0,6.935,3.105,6.935,6.935v27.368c0,3.83-3.105,6.935-6.935,6.935
		h22.703c3.83,0,6.935-3.105,6.935-6.935v-27.368C457.859,326.327,454.754,323.222,450.924,323.222z"/>
	<path style="fill:#D39053;" d="M89.787,364.46v32.766c0,4.428,3.589,8.017,8.017,8.017h1.047c24.235,0,43.881,19.646,43.881,43.881
		V512h226.535v-62.876c0-24.235,19.646-43.881,43.881-43.881h1.047c4.428,0,8.017-3.589,8.017-8.017V364.46H89.787z"/>
</g>
<g>
	<rect x="89.79" y="364.46" style="fill:#AF713E;" width="332.43" height="21.792"/>
	<path style="fill:#AF713E;" d="M395.063,364.46v32.766c0,4.428-3.074,8.017-6.865,8.017h-0.897
		c-20.752,0-37.575,19.646-37.575,43.881V512h19.541v-62.876c0-24.235,19.646-43.881,43.881-43.881h1.047
		c4.428,0,8.017-3.589,8.017-8.017V364.46H395.063z"/>
	<path style="fill:#AF713E;" d="M302.749,452.215c-4.146,0-7.506,3.361-7.506,7.506V512h15.013v-52.279
		C310.256,455.575,306.895,452.215,302.749,452.215z"/>
	<path style="fill:#AF713E;" d="M256,428.989c-4.146,0-7.506,3.361-7.506,7.506V512h15.013v-75.505
		C263.506,432.349,260.146,428.989,256,428.989z"/>
	<path style="fill:#AF713E;" d="M209.252,452.215c-4.146,0-7.506,3.361-7.506,7.506V512h15.013v-52.279
		C216.758,455.575,213.398,452.215,209.252,452.215z"/>
</g>
<g>
</g>
<g>
</g>
<g>
</g>
<g>
</g>
<g>
</g>
<g>
</g>
<g>
</g>
<g>
</g>
<g>
</g>
<g>
</g>
<g>
</g>
<g>
</g>
<g>
</g>
<g>
</g>
<g>
</g>
</svg>
